# xmcd CD database file
#
# Track frame offsets:
#	150
#	40687
#	59022
#	87882
#	103320
#	123645
#	148587
#	175070
#	188427
#
# Disc length: 2860 seconds
#
# Revision: 0
# Processed by: cddbd v1.4PL0 Copyright (c) Steve Scherf et al.
# Submitted via: CDex 1.50beta10
#
DISCID=7a0b2a09
DTITLE=Bex Emmanuel - Steel bex
DYEAR=1996
DGENRE=Jazz
TTITLE0=Chinoiserie
TTITLE1=IXTLAN Calypso
TTITLE2=Pour Alain
TTITLE3=Lion
TTITLE4=Little Rootie tootie
TTITLE5=To Lou
TTITLE6=Lion
TTITLE7=Indifference
TTITLE8=Une belle pluie
EXTD=YEAR: 1996
EXTT0=
EXTT1=
EXTT2=
EXTT3=
EXTT4=
EXTT5=
EXTT6=
EXTT7=
EXTT8=
PLAYORDER=
